<svg width="180" height="30" viewBox="0 0 180 30" fill="none" xmlns="http://www.w3.org/2000/svg">
<mask id="path-1-outside-1_1_135" maskUnits="userSpaceOnUse" x="46" y="7" width="133" height="18" fill="black">
<rect fill="white" x="46" y="7" width="133" height="18"/>
<path d="M47.504 24C46.832 24 46.496 23.664 46.496 22.992V8.736C46.496 8.064 46.832 7.728 47.504 7.728H56.336C56.648 7.728 56.892 7.82 57.068 8.004C57.252 8.18 57.344 8.424 57.344 8.736C57.344 9.408 57.008 9.744 56.336 9.744H48.512V14.784H53.336C54.008 14.784 54.344 15.12 54.344 15.792C54.344 16.464 54.008 16.8 53.336 16.8H48.512V22.992C48.512 23.664 48.176 24 47.504 24ZM60.8399 24C60.1679 24 59.8319 23.664 59.8319 22.992V8.736C59.8319 8.064 60.1679 7.728 60.8399 7.728C61.5119 7.728 61.8479 8.064 61.8479 8.736V21.984H68.4959C69.1679 21.984 69.5039 22.32 69.5039 22.992C69.5039 23.664 69.1679 24 68.4959 24H60.8399ZM73.8243 24C73.1523 24 72.8163 23.664 72.8163 22.992V8.736C72.8163 8.064 73.1523 7.728 73.8243 7.728H82.4403C83.1123 7.728 83.4483 8.064 83.4483 8.736C83.4483 9.408 83.1123 9.744 82.4403 9.744H74.8323V14.784H79.6083C80.2803 14.784 80.6163 15.12 80.6163 15.792C80.6163 16.464 80.2803 16.8 79.6083 16.8H74.8323V21.984H82.4403C83.1123 21.984 83.4483 22.32 83.4483 22.992C83.4483 23.664 83.1123 24 82.4403 24H73.8243ZM86.8453 23.784C86.3093 23.416 86.2293 22.944 86.6053 22.368L90.9973 15.888L86.3652 9.36C86.0053 8.832 86.0933 8.36 86.6293 7.944C87.1813 7.568 87.6453 7.656 88.0213 8.208L92.3173 14.232L96.6373 8.208C97.0533 7.672 97.5173 7.6 98.0293 7.992C98.5733 8.392 98.6533 8.856 98.2693 9.384L93.5413 15.96L98.0773 22.344C98.4533 22.896 98.3653 23.376 97.8133 23.784C97.2613 24.16 96.7973 24.072 96.4213 23.52L92.2453 17.64L88.2613 23.544C87.8933 24.064 87.4213 24.144 86.8453 23.784ZM106.632 24C104.8 24 103.444 23.564 102.564 22.692C101.692 21.812 101.256 20.456 101.256 18.624V13.104C101.256 11.256 101.692 9.896 102.564 9.024C103.436 8.144 104.784 7.712 106.608 7.728H109.512C111.016 7.728 112.164 8.04 112.956 8.664C113.748 9.28 114.208 10.256 114.336 11.592C114.384 11.928 114.32 12.184 114.144 12.36C113.968 12.536 113.712 12.624 113.376 12.624C112.768 12.624 112.416 12.288 112.32 11.616C112.24 10.88 111.984 10.384 111.552 10.128C111.128 9.872 110.448 9.744 109.512 9.744H106.608C105.76 9.736 105.092 9.832 104.604 10.032C104.124 10.232 103.78 10.58 103.572 11.076C103.372 11.564 103.272 12.24 103.272 13.104V18.624C103.272 19.48 103.372 20.152 103.572 20.64C103.78 21.128 104.128 21.476 104.616 21.684C105.104 21.884 105.776 21.984 106.632 21.984H109.512C110.448 21.984 111.128 21.856 111.552 21.6C111.984 21.336 112.24 20.84 112.32 20.112C112.416 19.44 112.768 19.104 113.376 19.104C113.712 19.104 113.968 19.192 114.144 19.368C114.32 19.544 114.384 19.8 114.336 20.136C114.208 21.48 113.748 22.46 112.956 23.076C112.164 23.692 111.016 24 109.512 24H106.632ZM119.551 24C119.287 24 119.051 23.9 118.843 23.7C118.643 23.492 118.543 23.256 118.543 22.992V8.736C118.543 8.472 118.643 8.24 118.843 8.04C119.051 7.832 119.287 7.728 119.551 7.728C119.815 7.728 120.047 7.832 120.247 8.04C120.455 8.24 120.559 8.472 120.559 8.736V14.76H130.351V8.736C130.351 8.472 130.451 8.24 130.651 8.04C130.851 7.832 131.087 7.728 131.359 7.728C131.623 7.728 131.855 7.832 132.055 8.04C132.263 8.24 132.367 8.472 132.367 8.736V22.992C132.367 23.256 132.263 23.492 132.055 23.7C131.855 23.9 131.623 24 131.359 24C131.087 24 130.851 23.9 130.651 23.7C130.451 23.492 130.351 23.256 130.351 22.992V16.776H120.559V22.992C120.559 23.256 120.455 23.492 120.247 23.7C120.047 23.9 119.815 24 119.551 24ZM138.371 24C137.699 24 137.363 23.664 137.363 22.992V8.736C137.363 8.064 137.699 7.728 138.371 7.728H146.987C147.659 7.728 147.995 8.064 147.995 8.736C147.995 9.408 147.659 9.744 146.987 9.744H139.379V14.784H144.155C144.827 14.784 145.163 15.12 145.163 15.792C145.163 16.464 144.827 16.8 144.155 16.8H139.379V21.984H146.987C147.659 21.984 147.995 22.32 147.995 22.992C147.995 23.664 147.659 24 146.987 24H138.371ZM156.155 24C154.323 24 152.967 23.564 152.087 22.692C151.215 21.812 150.779 20.456 150.779 18.624V13.104C150.779 11.256 151.215 9.896 152.087 9.024C152.959 8.144 154.307 7.712 156.131 7.728H159.035C160.539 7.728 161.687 8.04 162.479 8.664C163.271 9.28 163.731 10.256 163.859 11.592C163.907 11.928 163.843 12.184 163.667 12.36C163.491 12.536 163.235 12.624 162.899 12.624C162.291 12.624 161.939 12.288 161.843 11.616C161.763 10.88 161.507 10.384 161.075 10.128C160.651 9.872 159.971 9.744 159.035 9.744H156.131C155.283 9.736 154.615 9.832 154.127 10.032C153.647 10.232 153.303 10.58 153.095 11.076C152.895 11.564 152.795 12.24 152.795 13.104V18.624C152.795 19.48 152.895 20.152 153.095 20.64C153.303 21.128 153.651 21.476 154.139 21.684C154.627 21.884 155.299 21.984 156.155 21.984H159.035C159.971 21.984 160.651 21.856 161.075 21.6C161.507 21.336 161.763 20.84 161.843 20.112C161.939 19.44 162.291 19.104 162.899 19.104C163.235 19.104 163.491 19.192 163.667 19.368C163.843 19.544 163.907 19.8 163.859 20.136C163.731 21.48 163.271 22.46 162.479 23.076C161.687 23.692 160.539 24 159.035 24H156.155ZM169.074 24C168.402 24 168.066 23.664 168.066 22.992V8.736C168.066 8.064 168.402 7.728 169.074 7.728C169.746 7.728 170.082 8.064 170.082 8.736V14.436L176.202 8.112C176.666 7.616 177.138 7.608 177.618 8.088C178.114 8.552 178.122 9.024 177.642 9.504L172.542 14.772L178.554 22.248C178.962 22.784 178.914 23.256 178.41 23.664C177.89 24.088 177.418 24.04 176.994 23.52L171.126 16.248L170.082 17.328V22.992C170.082 23.664 169.746 24 169.074 24Z"/>
</mask>
<path d="M47.504 24C46.832 24 46.496 23.664 46.496 22.992V8.736C46.496 8.064 46.832 7.728 47.504 7.728H56.336C56.648 7.728 56.892 7.82 57.068 8.004C57.252 8.18 57.344 8.424 57.344 8.736C57.344 9.408 57.008 9.744 56.336 9.744H48.512V14.784H53.336C54.008 14.784 54.344 15.12 54.344 15.792C54.344 16.464 54.008 16.8 53.336 16.8H48.512V22.992C48.512 23.664 48.176 24 47.504 24ZM60.8399 24C60.1679 24 59.8319 23.664 59.8319 22.992V8.736C59.8319 8.064 60.1679 7.728 60.8399 7.728C61.5119 7.728 61.8479 8.064 61.8479 8.736V21.984H68.4959C69.1679 21.984 69.5039 22.32 69.5039 22.992C69.5039 23.664 69.1679 24 68.4959 24H60.8399ZM73.8243 24C73.1523 24 72.8163 23.664 72.8163 22.992V8.736C72.8163 8.064 73.1523 7.728 73.8243 7.728H82.4403C83.1123 7.728 83.4483 8.064 83.4483 8.736C83.4483 9.408 83.1123 9.744 82.4403 9.744H74.8323V14.784H79.6083C80.2803 14.784 80.6163 15.12 80.6163 15.792C80.6163 16.464 80.2803 16.8 79.6083 16.8H74.8323V21.984H82.4403C83.1123 21.984 83.4483 22.32 83.4483 22.992C83.4483 23.664 83.1123 24 82.4403 24H73.8243ZM86.8453 23.784C86.3093 23.416 86.2293 22.944 86.6053 22.368L90.9973 15.888L86.3652 9.36C86.0053 8.832 86.0933 8.36 86.6293 7.944C87.1813 7.568 87.6453 7.656 88.0213 8.208L92.3173 14.232L96.6373 8.208C97.0533 7.672 97.5173 7.6 98.0293 7.992C98.5733 8.392 98.6533 8.856 98.2693 9.384L93.5413 15.96L98.0773 22.344C98.4533 22.896 98.3653 23.376 97.8133 23.784C97.2613 24.16 96.7973 24.072 96.4213 23.52L92.2453 17.64L88.2613 23.544C87.8933 24.064 87.4213 24.144 86.8453 23.784ZM106.632 24C104.8 24 103.444 23.564 102.564 22.692C101.692 21.812 101.256 20.456 101.256 18.624V13.104C101.256 11.256 101.692 9.896 102.564 9.024C103.436 8.144 104.784 7.712 106.608 7.728H109.512C111.016 7.728 112.164 8.04 112.956 8.664C113.748 9.28 114.208 10.256 114.336 11.592C114.384 11.928 114.32 12.184 114.144 12.36C113.968 12.536 113.712 12.624 113.376 12.624C112.768 12.624 112.416 12.288 112.32 11.616C112.24 10.88 111.984 10.384 111.552 10.128C111.128 9.872 110.448 9.744 109.512 9.744H106.608C105.76 9.736 105.092 9.832 104.604 10.032C104.124 10.232 103.78 10.58 103.572 11.076C103.372 11.564 103.272 12.24 103.272 13.104V18.624C103.272 19.48 103.372 20.152 103.572 20.64C103.78 21.128 104.128 21.476 104.616 21.684C105.104 21.884 105.776 21.984 106.632 21.984H109.512C110.448 21.984 111.128 21.856 111.552 21.6C111.984 21.336 112.24 20.84 112.32 20.112C112.416 19.44 112.768 19.104 113.376 19.104C113.712 19.104 113.968 19.192 114.144 19.368C114.32 19.544 114.384 19.8 114.336 20.136C114.208 21.48 113.748 22.46 112.956 23.076C112.164 23.692 111.016 24 109.512 24H106.632ZM119.551 24C119.287 24 119.051 23.9 118.843 23.7C118.643 23.492 118.543 23.256 118.543 22.992V8.736C118.543 8.472 118.643 8.24 118.843 8.04C119.051 7.832 119.287 7.728 119.551 7.728C119.815 7.728 120.047 7.832 120.247 8.04C120.455 8.24 120.559 8.472 120.559 8.736V14.76H130.351V8.736C130.351 8.472 130.451 8.24 130.651 8.04C130.851 7.832 131.087 7.728 131.359 7.728C131.623 7.728 131.855 7.832 132.055 8.04C132.263 8.24 132.367 8.472 132.367 8.736V22.992C132.367 23.256 132.263 23.492 132.055 23.7C131.855 23.9 131.623 24 131.359 24C131.087 24 130.851 23.9 130.651 23.7C130.451 23.492 130.351 23.256 130.351 22.992V16.776H120.559V22.992C120.559 23.256 120.455 23.492 120.247 23.7C120.047 23.9 119.815 24 119.551 24ZM138.371 24C137.699 24 137.363 23.664 137.363 22.992V8.736C137.363 8.064 137.699 7.728 138.371 7.728H146.987C147.659 7.728 147.995 8.064 147.995 8.736C147.995 9.408 147.659 9.744 146.987 9.744H139.379V14.784H144.155C144.827 14.784 145.163 15.12 145.163 15.792C145.163 16.464 144.827 16.8 144.155 16.8H139.379V21.984H146.987C147.659 21.984 147.995 22.32 147.995 22.992C147.995 23.664 147.659 24 146.987 24H138.371ZM156.155 24C154.323 24 152.967 23.564 152.087 22.692C151.215 21.812 150.779 20.456 150.779 18.624V13.104C150.779 11.256 151.215 9.896 152.087 9.024C152.959 8.144 154.307 7.712 156.131 7.728H159.035C160.539 7.728 161.687 8.04 162.479 8.664C163.271 9.28 163.731 10.256 163.859 11.592C163.907 11.928 163.843 12.184 163.667 12.36C163.491 12.536 163.235 12.624 162.899 12.624C162.291 12.624 161.939 12.288 161.843 11.616C161.763 10.88 161.507 10.384 161.075 10.128C160.651 9.872 159.971 9.744 159.035 9.744H156.131C155.283 9.736 154.615 9.832 154.127 10.032C153.647 10.232 153.303 10.58 153.095 11.076C152.895 11.564 152.795 12.24 152.795 13.104V18.624C152.795 19.48 152.895 20.152 153.095 20.64C153.303 21.128 153.651 21.476 154.139 21.684C154.627 21.884 155.299 21.984 156.155 21.984H159.035C159.971 21.984 160.651 21.856 161.075 21.6C161.507 21.336 161.763 20.84 161.843 20.112C161.939 19.44 162.291 19.104 162.899 19.104C163.235 19.104 163.491 19.192 163.667 19.368C163.843 19.544 163.907 19.8 163.859 20.136C163.731 21.48 163.271 22.46 162.479 23.076C161.687 23.692 160.539 24 159.035 24H156.155ZM169.074 24C168.402 24 168.066 23.664 168.066 22.992V8.736C168.066 8.064 168.402 7.728 169.074 7.728C169.746 7.728 170.082 8.064 170.082 8.736V14.436L176.202 8.112C176.666 7.616 177.138 7.608 177.618 8.088C178.114 8.552 178.122 9.024 177.642 9.504L172.542 14.772L178.554 22.248C178.962 22.784 178.914 23.256 178.41 23.664C177.89 24.088 177.418 24.04 176.994 23.52L171.126 16.248L170.082 17.328V22.992C170.082 23.664 169.746 24 169.074 24Z" fill="#A6C2DC"/>
<path d="M57.068 8.004L56.9957 8.07319L56.9989 8.07626L57.068 8.004ZM48.512 9.744V9.644H48.412V9.744H48.512ZM48.512 14.784H48.412V14.884H48.512V14.784ZM48.512 16.8V16.7H48.412V16.8H48.512ZM47.504 23.9C47.1834 23.9 46.9613 23.8199 46.8187 23.6773C46.6761 23.5347 46.596 23.3126 46.596 22.992H46.396C46.396 23.3434 46.4839 23.6253 46.6773 23.8187C46.8707 24.0121 47.1526 24.1 47.504 24.1V23.9ZM46.596 22.992V8.736H46.396V22.992H46.596ZM46.596 8.736C46.596 8.41541 46.6761 8.19334 46.8187 8.05071C46.9613 7.90808 47.1834 7.828 47.504 7.828V7.628C47.1526 7.628 46.8707 7.71592 46.6773 7.90929C46.4839 8.10266 46.396 8.38458 46.396 8.736H46.596ZM47.504 7.828H56.336V7.628H47.504V7.828ZM56.336 7.828C56.6273 7.828 56.8427 7.91314 56.9957 8.07312L57.1403 7.93488C56.9413 7.72685 56.6687 7.628 56.336 7.628V7.828ZM56.9989 8.07626C57.1589 8.22928 57.244 8.44471 57.244 8.736H57.444C57.444 8.40329 57.3451 8.13071 57.1371 7.93174L56.9989 8.07626ZM57.244 8.736C57.244 9.05658 57.1639 9.27866 57.0213 9.42129C56.8787 9.56392 56.6566 9.644 56.336 9.644V9.844C56.6874 9.844 56.9693 9.75608 57.1627 9.56271C57.3561 9.36934 57.444 9.08741 57.444 8.736H57.244ZM56.336 9.644H48.512V9.844H56.336V9.644ZM48.412 9.744V14.784H48.612V9.744H48.412ZM48.512 14.884H53.336V14.684H48.512V14.884ZM53.336 14.884C53.6566 14.884 53.8787 14.9641 54.0213 15.1067C54.1639 15.2493 54.244 15.4714 54.244 15.792H54.444C54.444 15.4406 54.3561 15.1587 54.1627 14.9653C53.9693 14.7719 53.6874 14.684 53.336 14.684V14.884ZM54.244 15.792C54.244 16.1126 54.1639 16.3347 54.0213 16.4773C53.8787 16.6199 53.6566 16.7 53.336 16.7V16.9C53.6874 16.9 53.9693 16.8121 54.1627 16.6187C54.3561 16.4253 54.444 16.1434 54.444 15.792H54.244ZM53.336 16.7H48.512V16.9H53.336V16.7ZM48.412 16.8V22.992H48.612V16.8H48.412ZM48.412 22.992C48.412 23.3126 48.3319 23.5347 48.1893 23.6773C48.0467 23.8199 47.8246 23.9 47.504 23.9V24.1C47.8554 24.1 48.1373 24.0121 48.3307 23.8187C48.5241 23.6253 48.612 23.3434 48.612 22.992H48.412ZM61.8479 21.984H61.7479V22.084H61.8479V21.984ZM60.8399 23.9C60.5194 23.9 60.2973 23.8199 60.1546 23.6773C60.012 23.5347 59.9319 23.3126 59.9319 22.992H59.7319C59.7319 23.3434 59.8199 23.6253 60.0132 23.8187C60.2066 24.0121 60.4885 24.1 60.8399 24.1V23.9ZM59.9319 22.992V8.736H59.7319V22.992H59.9319ZM59.9319 8.736C59.9319 8.41541 60.012 8.19334 60.1546 8.05071C60.2973 7.90808 60.5194 7.828 60.8399 7.828V7.628C60.4885 7.628 60.2066 7.71592 60.0132 7.90929C59.8199 8.10266 59.7319 8.38458 59.7319 8.736H59.9319ZM60.8399 7.828C61.1605 7.828 61.3826 7.90808 61.5252 8.05071C61.6679 8.19334 61.7479 8.41541 61.7479 8.736H61.9479C61.9479 8.38458 61.86 8.10266 61.6666 7.90929C61.4733 7.71592 61.1914 7.628 60.8399 7.628V7.828ZM61.7479 8.736V21.984H61.9479V8.736H61.7479ZM61.8479 22.084H68.4959V21.884H61.8479V22.084ZM68.4959 22.084C68.8165 22.084 69.0386 22.1641 69.1812 22.3067C69.3239 22.4493 69.4039 22.6714 69.4039 22.992H69.6039C69.6039 22.6406 69.516 22.3587 69.3226 22.1653C69.1293 21.9719 68.8474 21.884 68.4959 21.884V22.084ZM69.4039 22.992C69.4039 23.3126 69.3239 23.5347 69.1812 23.6773C69.0386 23.8199 68.8165 23.9 68.4959 23.9V24.1C68.8474 24.1 69.1293 24.0121 69.3226 23.8187C69.516 23.6253 69.6039 23.3434 69.6039 22.992H69.4039ZM68.4959 23.9H60.8399V24.1H68.4959V23.9ZM74.8323 9.744V9.644H74.7323V9.744H74.8323ZM74.8323 14.784H74.7323V14.884H74.8323V14.784ZM74.8323 16.8V16.7H74.7323V16.8H74.8323ZM74.8323 21.984H74.7323V22.084H74.8323V21.984ZM73.8243 23.9C73.5037 23.9 73.2817 23.8199 73.139 23.6773C72.9964 23.5347 72.9163 23.3126 72.9163 22.992H72.7163C72.7163 23.3434 72.8042 23.6253 72.9976 23.8187C73.191 24.0121 73.4729 24.1 73.8243 24.1V23.9ZM72.9163 22.992V8.736H72.7163V22.992H72.9163ZM72.9163 8.736C72.9163 8.41541 72.9964 8.19334 73.139 8.05071C73.2817 7.90808 73.5037 7.828 73.8243 7.828V7.628C73.4729 7.628 73.191 7.71592 72.9976 7.90929C72.8042 8.10266 72.7163 8.38458 72.7163 8.736H72.9163ZM73.8243 7.828H82.4403V7.628H73.8243V7.828ZM82.4403 7.828C82.7609 7.828 82.983 7.90808 83.1256 8.05071C83.2682 8.19334 83.3483 8.41541 83.3483 8.736H83.5483C83.5483 8.38458 83.4604 8.10266 83.267 7.90929C83.0737 7.71592 82.7917 7.628 82.4403 7.628V7.828ZM83.3483 8.736C83.3483 9.05658 83.2682 9.27866 83.1256 9.42129C82.983 9.56392 82.7609 9.644 82.4403 9.644V9.844C82.7917 9.844 83.0737 9.75608 83.267 9.56271C83.4604 9.36934 83.5483 9.08741 83.5483 8.736H83.3483ZM82.4403 9.644H74.8323V9.844H82.4403V9.644ZM74.7323 9.744V14.784H74.9323V9.744H74.7323ZM74.8323 14.884H79.6083V14.684H74.8323V14.884ZM79.6083 14.884C79.9289 14.884 80.151 14.9641 80.2936 15.1067C80.4362 15.2493 80.5163 15.4714 80.5163 15.792H80.7163C80.7163 15.4406 80.6284 15.1587 80.435 14.9653C80.2417 14.7719 79.9597 14.684 79.6083 14.684V14.884ZM80.5163 15.792C80.5163 16.1126 80.4362 16.3347 80.2936 16.4773C80.151 16.6199 79.9289 16.7 79.6083 16.7V16.9C79.9597 16.9 80.2417 16.8121 80.435 16.6187C80.6284 16.4253 80.7163 16.1434 80.7163 15.792H80.5163ZM79.6083 16.7H74.8323V16.9H79.6083V16.7ZM74.7323 16.8V21.984H74.9323V16.8H74.7323ZM74.8323 22.084H82.4403V21.884H74.8323V22.084ZM82.4403 22.084C82.7609 22.084 82.983 22.1641 83.1256 22.3067C83.2682 22.4493 83.3483 22.6714 83.3483 22.992H83.5483C83.5483 22.6406 83.4604 22.3587 83.267 22.1653C83.0737 21.9719 82.7917 21.884 82.4403 21.884V22.084ZM83.3483 22.992C83.3483 23.3126 83.2682 23.5347 83.1256 23.6773C82.983 23.8199 82.7609 23.9 82.4403 23.9V24.1C82.7917 24.1 83.0737 24.0121 83.267 23.8187C83.4604 23.6253 83.5483 23.3434 83.5483 22.992H83.3483ZM82.4403 23.9H73.8243V24.1H82.4403V23.9ZM86.8452 23.784L86.7886 23.8665L86.7923 23.8688L86.8452 23.784ZM86.6053 22.368L86.5225 22.3119L86.5215 22.3133L86.6053 22.368ZM90.9972 15.888L91.08 15.9441L91.1189 15.8867L91.0788 15.8301L90.9972 15.888ZM86.3652 9.36L86.2826 9.41634L86.2837 9.41787L86.3652 9.36ZM86.6292 7.944L86.5728 7.86119L86.5679 7.865L86.6292 7.944ZM88.0213 8.208L87.9386 8.26431L87.9398 8.26606L88.0213 8.208ZM92.3172 14.232L92.2358 14.2901L92.317 14.4039L92.3985 14.2903L92.3172 14.232ZM96.6372 8.208L96.5582 8.14664L96.556 8.14972L96.6372 8.208ZM98.0293 7.992L97.9684 8.07141L97.97 8.07256L98.0293 7.992ZM98.2692 9.384L98.1884 9.32518L98.1881 9.32562L98.2692 9.384ZM93.5413 15.96L93.4601 15.9016L93.4183 15.9597L93.4597 16.0179L93.5413 15.96ZM98.0773 22.344L98.1599 22.2877L98.1588 22.2861L98.0773 22.344ZM97.8133 23.784L97.8696 23.8667L97.8727 23.8644L97.8133 23.784ZM96.4212 23.52L96.5039 23.4637L96.5028 23.4621L96.4212 23.52ZM92.2453 17.64L92.3268 17.5821L92.2431 17.4643L92.1624 17.5841L92.2453 17.64ZM88.2612 23.544L88.3429 23.6018L88.3441 23.5999L88.2612 23.544ZM86.9019 23.7016C86.6479 23.5272 86.5159 23.3381 86.4818 23.1373C86.4476 22.9351 86.5088 22.6987 86.689 22.4227L86.5215 22.3133C86.3257 22.6133 86.2389 22.9009 86.2847 23.1707C86.3306 23.4419 86.5066 23.6728 86.7887 23.8664L86.9019 23.7016ZM86.688 22.4241L91.08 15.9441L90.9145 15.8319L86.5225 22.3119L86.688 22.4241ZM91.0788 15.8301L86.4468 9.30213L86.2837 9.41787L90.9157 15.9459L91.0788 15.8301ZM86.4479 9.30367C86.2777 9.05404 86.2218 8.83064 86.2596 8.62833C86.2975 8.42473 86.434 8.22215 86.6906 8.023L86.5679 7.865C86.2885 8.08185 86.113 8.32327 86.0629 8.59167C86.0127 8.86136 86.0928 9.13796 86.2826 9.41633L86.4479 9.30367ZM86.6855 8.02665C86.9488 7.84732 87.1759 7.78893 87.3726 7.82625C87.5694 7.86356 87.7593 8.00104 87.9386 8.2643L88.1039 8.1517C87.9072 7.86296 87.6771 7.68044 87.4099 7.62975C87.1426 7.57907 86.8617 7.66467 86.573 7.86135L86.6855 8.02665ZM87.9398 8.26606L92.2358 14.2901L92.3987 14.1739L88.1027 8.14994L87.9398 8.26606ZM92.3985 14.2903L96.7185 8.26628L96.556 8.14972L92.236 14.1737L92.3985 14.2903ZM96.7162 8.26931C96.9155 8.01256 97.1151 7.88146 97.3126 7.85082C97.5088 7.82037 97.7258 7.88561 97.9685 8.0714L98.09 7.9126C97.8207 7.70638 97.5497 7.61163 97.2819 7.65318C97.0154 7.69454 96.775 7.86744 96.5583 8.14669L96.7162 8.26931ZM97.97 8.07256C98.2302 8.2639 98.3647 8.45971 98.3987 8.65699C98.4326 8.85342 98.3708 9.07439 98.1884 9.32518L98.3501 9.44282C98.5517 9.16561 98.6419 8.89058 98.5958 8.62301C98.5498 8.35628 98.3723 8.1201 98.0885 7.91143L97.97 8.07256ZM98.1881 9.32562L93.4601 15.9016L93.6224 16.0184L98.3504 9.44238L98.1881 9.32562ZM93.4597 16.0179L97.9957 22.4019L98.1588 22.2861L93.6228 15.9021L93.4597 16.0179ZM97.9946 22.4003C98.1734 22.6627 98.2326 22.8942 98.1949 23.1C98.157 23.3064 98.0177 23.5085 97.7538 23.7036L97.8727 23.8644C98.1608 23.6515 98.3415 23.4096 98.3916 23.136C98.4419 22.8618 98.3571 22.5773 98.1599 22.2877L97.9946 22.4003ZM97.757 23.7014C97.4937 23.8807 97.2666 23.9391 97.0699 23.9018C96.8731 23.8644 96.6832 23.727 96.5039 23.4637L96.3386 23.5763C96.5353 23.865 96.7654 24.0476 97.0326 24.0982C97.2999 24.1489 97.5808 24.0633 97.8695 23.8666L97.757 23.7014ZM96.5028 23.4621L92.3268 17.5821L92.1637 17.6979L96.3397 23.5779L96.5028 23.4621ZM92.1624 17.5841L88.1784 23.4881L88.3441 23.5999L92.3281 17.6959L92.1624 17.5841ZM88.1796 23.4862C88.0057 23.732 87.8166 23.8612 87.6145 23.8954C87.4111 23.9299 87.1741 23.8716 86.8983 23.6992L86.7923 23.8688C87.0924 24.0564 87.3794 24.1381 87.648 24.0926C87.9179 24.0468 88.1488 23.876 88.3429 23.6018L88.1796 23.4862ZM102.564 22.692L102.493 22.7624L102.494 22.763L102.564 22.692ZM102.564 9.024L102.635 9.09471L102.635 9.09439L102.564 9.024ZM106.608 7.728L106.607 7.828H106.608V7.728ZM112.956 8.664L112.894 8.74255L112.895 8.74293L112.956 8.664ZM114.336 11.592L114.236 11.6015L114.237 11.6061L114.336 11.592ZM114.144 12.36L114.215 12.4307L114.215 12.4307L114.144 12.36ZM112.32 11.616L112.22 11.6268L112.221 11.6301L112.32 11.616ZM111.552 10.128L111.5 10.2136L111.501 10.214L111.552 10.128ZM106.608 9.744L106.607 9.844H106.608V9.744ZM104.604 10.032L104.566 9.93947L104.565 9.93969L104.604 10.032ZM103.572 11.076L103.48 11.0373L103.479 11.0381L103.572 11.076ZM103.572 20.64L103.479 20.6779L103.48 20.6792L103.572 20.64ZM104.616 21.684L104.577 21.776L104.578 21.7765L104.616 21.684ZM111.552 21.6L111.604 21.6856L111.604 21.6853L111.552 21.6ZM112.32 20.112L112.221 20.0979L112.221 20.1011L112.32 20.112ZM114.144 19.368L114.215 19.2973H114.215L114.144 19.368ZM114.336 20.136L114.237 20.1218L114.236 20.1265L114.336 20.136ZM112.956 23.076L113.017 23.1549L112.956 23.076ZM106.632 23.9C104.814 23.9 103.488 23.4671 102.634 22.621L102.494 22.763C103.4 23.6609 104.786 24.1 106.632 24.1V23.9ZM102.635 22.6216C101.789 21.7677 101.356 20.4422 101.356 18.624H101.156C101.156 20.4698 101.595 21.8563 102.493 22.7624L102.635 22.6216ZM101.356 18.624V13.104H101.156V18.624H101.356ZM101.356 13.104C101.356 11.2694 101.789 9.94039 102.635 9.09471L102.493 8.95329C101.595 9.85161 101.156 11.2425 101.156 13.104H101.356ZM102.635 9.09439C103.481 8.24103 104.797 7.81212 106.607 7.828L106.609 7.628C104.771 7.61188 103.391 8.04697 102.493 8.95361L102.635 9.09439ZM106.608 7.828H109.512V7.628H106.608V7.828ZM109.512 7.828C111.004 7.828 112.127 8.13781 112.894 8.74255L113.018 8.58545C112.201 7.94218 111.028 7.628 109.512 7.628V7.828ZM112.895 8.74293C113.658 9.33689 114.11 10.2833 114.236 11.6015L114.435 11.5825C114.306 10.2287 113.838 9.2231 113.017 8.58506L112.895 8.74293ZM114.237 11.6061C114.282 11.9232 114.22 12.143 114.073 12.2893L114.215 12.4307C114.42 12.225 114.486 11.9328 114.435 11.5779L114.237 11.6061ZM114.073 12.2893C113.922 12.4407 113.695 12.524 113.376 12.524V12.724C113.729 12.724 114.014 12.6313 114.215 12.4307L114.073 12.2893ZM113.376 12.524C113.091 12.524 112.878 12.4457 112.725 12.2997C112.571 12.1523 112.465 11.9243 112.419 11.6019L112.221 11.6301C112.271 11.9797 112.389 12.2557 112.587 12.4443C112.786 12.6342 113.053 12.724 113.376 12.724V12.524ZM112.419 11.6052C112.338 10.8534 112.073 10.3206 111.603 10.042L111.501 10.214C111.895 10.4474 112.142 10.9066 112.221 11.6268L112.419 11.6052ZM111.604 10.0424C111.155 9.7718 110.453 9.644 109.512 9.644V9.844C110.443 9.844 111.1 9.97219 111.5 10.2136L111.604 10.0424ZM109.512 9.644H106.608V9.844H109.512V9.644ZM106.609 9.644C105.755 9.63595 105.072 9.73227 104.566 9.93947L104.642 10.1245C105.112 9.93173 105.765 9.83605 106.607 9.84399L106.609 9.644ZM104.565 9.93969C104.06 10.1502 103.697 10.518 103.48 11.0373L103.664 11.1147C103.862 10.642 104.188 10.3138 104.642 10.1243L104.565 9.93969ZM103.479 11.0381C103.272 11.5434 103.172 12.2342 103.172 13.104H103.372C103.372 12.2458 103.472 11.5846 103.664 11.1139L103.479 11.0381ZM103.172 13.104V18.624H103.372V13.104H103.172ZM103.172 18.624C103.172 19.4859 103.272 20.1727 103.479 20.6779L103.664 20.6021C103.472 20.1313 103.372 19.4741 103.372 18.624H103.172ZM103.48 20.6792C103.698 21.191 104.065 21.5579 104.577 21.776L104.655 21.592C104.191 21.3941 103.862 21.065 103.664 20.6008L103.48 20.6792ZM104.578 21.7765C105.083 21.9836 105.77 22.084 106.632 22.084V21.884C105.782 21.884 105.125 21.7844 104.654 21.5915L104.578 21.7765ZM106.632 22.084H109.512V21.884H106.632V22.084ZM109.512 22.084C110.453 22.084 111.155 21.9562 111.604 21.6856L111.5 21.5144C111.1 21.7558 110.443 21.884 109.512 21.884V22.084ZM111.604 21.6853C112.073 21.3989 112.338 20.8673 112.419 20.1229L112.221 20.1011C112.142 20.8127 111.895 21.2731 111.5 21.5147L111.604 21.6853ZM112.419 20.1261C112.465 19.8037 112.571 19.5757 112.725 19.4283C112.878 19.2822 113.091 19.204 113.376 19.204V19.004C113.053 19.004 112.786 19.0938 112.587 19.2837C112.389 19.4723 112.271 19.7483 112.221 20.0979L112.419 20.1261ZM113.376 19.204C113.695 19.204 113.922 19.2873 114.073 19.4387L114.215 19.2973C114.014 19.0967 113.729 19.004 113.376 19.004V19.204ZM114.073 19.4387C114.22 19.585 114.282 19.8048 114.237 20.1219L114.435 20.1501C114.486 19.7952 114.42 19.503 114.215 19.2973L114.073 19.4387ZM114.236 20.1265C114.11 21.4529 113.658 22.4032 112.895 22.9971L113.017 23.1549C113.838 22.5168 114.306 21.5071 114.435 20.1455L114.236 20.1265ZM112.895 22.9971C112.127 23.5941 111.004 23.9 109.512 23.9V24.1C111.028 24.1 112.201 23.7899 113.017 23.1549L112.895 22.9971ZM109.512 23.9H106.632V24.1H109.512V23.9ZM118.843 23.7L118.771 23.7694L118.774 23.7721L118.843 23.7ZM118.843 8.04L118.914 8.11071L118.843 8.04ZM120.247 8.04L120.175 8.10936L120.178 8.11208L120.247 8.04ZM120.559 14.76H120.459V14.86H120.559V14.76ZM130.351 14.76V14.86H130.451V14.76H130.351ZM130.651 8.04L130.722 8.11072L130.723 8.10931L130.651 8.04ZM132.055 8.04L131.983 8.10936L131.986 8.11208L132.055 8.04ZM132.055 23.7L132.126 23.7707L132.055 23.7ZM130.651 23.7L130.579 23.7693L130.58 23.7707L130.651 23.7ZM130.351 16.776H130.451V16.676H130.351V16.776ZM120.559 16.776V16.676H120.459V16.776H120.559ZM120.247 23.7L120.318 23.7707L120.247 23.7ZM119.551 23.9C119.315 23.9 119.103 23.8118 118.912 23.6279L118.774 23.7721C118.998 23.9882 119.259 24.1 119.551 24.1V23.9ZM118.915 23.6307C118.731 23.4394 118.643 23.2276 118.643 22.992H118.443C118.443 23.2844 118.555 23.5446 118.771 23.7693L118.915 23.6307ZM118.643 22.992V8.736H118.443V22.992H118.643ZM118.643 8.736C118.643 8.50055 118.731 8.29344 118.914 8.11071L118.772 7.96929C118.555 8.18656 118.443 8.44345 118.443 8.736H118.643ZM118.914 8.11071C119.105 7.91912 119.317 7.828 119.551 7.828V7.628C119.257 7.628 118.997 7.74488 118.772 7.96929L118.914 8.11071ZM119.551 7.828C119.785 7.828 119.992 7.9189 120.175 8.10931L120.319 7.97069C120.102 7.7451 119.845 7.628 119.551 7.628V7.828ZM120.178 8.11208C120.368 8.29517 120.459 8.50188 120.459 8.736H120.659C120.659 8.44212 120.542 8.18483 120.316 7.96792L120.178 8.11208ZM120.459 8.736V14.76H120.659V8.736H120.459ZM120.559 14.86H130.351V14.66H120.559V14.86ZM130.451 14.76V8.736H130.251V14.76H130.451ZM130.451 8.736C130.451 8.50055 130.539 8.29344 130.722 8.11071L130.58 7.96929C130.363 8.18656 130.251 8.44345 130.251 8.736H130.451ZM130.723 8.10931C130.905 7.91959 131.116 7.828 131.359 7.828V7.628C131.058 7.628 130.796 7.74441 130.579 7.97069L130.723 8.10931ZM131.359 7.828C131.593 7.828 131.8 7.9189 131.983 8.10931L132.127 7.97069C131.91 7.7451 131.653 7.628 131.359 7.628V7.828ZM131.986 8.11208C132.176 8.29517 132.267 8.50188 132.267 8.736H132.467C132.467 8.44212 132.35 8.18483 132.124 7.96792L131.986 8.11208ZM132.267 8.736V22.992H132.467V8.736H132.267ZM132.267 22.992C132.267 23.2263 132.176 23.4377 131.984 23.6293L132.126 23.7707C132.35 23.5463 132.467 23.2857 132.467 22.992H132.267ZM131.984 23.6293C131.801 23.812 131.594 23.9 131.359 23.9V24.1C131.651 24.1 131.908 23.988 132.126 23.7707L131.984 23.6293ZM131.359 23.9C131.115 23.9 130.904 23.8114 130.722 23.6293L130.58 23.7707C130.798 23.9886 131.059 24.1 131.359 24.1V23.9ZM130.723 23.6307C130.539 23.4394 130.451 23.2276 130.451 22.992H130.251C130.251 23.2844 130.363 23.5446 130.579 23.7693L130.723 23.6307ZM130.451 22.992V16.776H130.251V22.992H130.451ZM130.351 16.676H120.559V16.876H130.351V16.676ZM120.459 16.776V22.992H120.659V16.776H120.459ZM120.459 22.992C120.459 23.2263 120.368 23.4377 120.176 23.6293L120.318 23.7707C120.542 23.5463 120.659 23.2857 120.659 22.992H120.459ZM120.176 23.6293C119.993 23.812 119.786 23.9 119.551 23.9V24.1C119.843 24.1 120.1 23.988 120.318 23.7707L120.176 23.6293ZM139.379 9.744V9.644H139.279V9.744H139.379ZM139.379 14.784H139.279V14.884H139.379V14.784ZM139.379 16.8V16.7H139.279V16.8H139.379ZM139.379 21.984H139.279V22.084H139.379V21.984ZM138.371 23.9C138.051 23.9 137.829 23.8199 137.686 23.6773C137.543 23.5347 137.463 23.3126 137.463 22.992H137.263C137.263 23.3434 137.351 23.6253 137.544 23.8187C137.738 24.0121 138.02 24.1 138.371 24.1V23.9ZM137.463 22.992V8.736H137.263V22.992H137.463ZM137.463 8.736C137.463 8.41541 137.543 8.19334 137.686 8.05071C137.829 7.90808 138.051 7.828 138.371 7.828V7.628C138.02 7.628 137.738 7.71592 137.544 7.90929C137.351 8.10266 137.263 8.38458 137.263 8.736H137.463ZM138.371 7.828H146.987V7.628H138.371V7.828ZM146.987 7.828C147.308 7.828 147.53 7.90808 147.672 8.05071C147.815 8.19334 147.895 8.41541 147.895 8.736H148.095C148.095 8.38458 148.007 8.10266 147.814 7.90929C147.621 7.71592 147.339 7.628 146.987 7.628V7.828ZM147.895 8.736C147.895 9.05658 147.815 9.27866 147.672 9.42129C147.53 9.56392 147.308 9.644 146.987 9.644V9.844C147.339 9.844 147.621 9.75608 147.814 9.56271C148.007 9.36934 148.095 9.08741 148.095 8.736H147.895ZM146.987 9.644H139.379V9.844H146.987V9.644ZM139.279 9.744V14.784H139.479V9.744H139.279ZM139.379 14.884H144.155V14.684H139.379V14.884ZM144.155 14.884C144.476 14.884 144.698 14.9641 144.84 15.1067C144.983 15.2493 145.063 15.4714 145.063 15.792H145.263C145.263 15.4406 145.175 15.1587 144.982 14.9653C144.789 14.7719 144.507 14.684 144.155 14.684V14.884ZM145.063 15.792C145.063 16.1126 144.983 16.3347 144.84 16.4773C144.698 16.6199 144.476 16.7 144.155 16.7V16.9C144.507 16.9 144.789 16.8121 144.982 16.6187C145.175 16.4253 145.263 16.1434 145.263 15.792H145.063ZM144.155 16.7H139.379V16.9H144.155V16.7ZM139.279 16.8V21.984H139.479V16.8H139.279ZM139.379 22.084H146.987V21.884H139.379V22.084ZM146.987 22.084C147.308 22.084 147.53 22.1641 147.672 22.3067C147.815 22.4493 147.895 22.6714 147.895 22.992H148.095C148.095 22.6406 148.007 22.3587 147.814 22.1653C147.621 21.9719 147.339 21.884 146.987 21.884V22.084ZM147.895 22.992C147.895 23.3126 147.815 23.5347 147.672 23.6773C147.53 23.8199 147.308 23.9 146.987 23.9V24.1C147.339 24.1 147.621 24.0121 147.814 23.8187C148.007 23.6253 148.095 23.3434 148.095 22.992H147.895ZM146.987 23.9H138.371V24.1H146.987V23.9ZM152.087 22.692L152.016 22.7624L152.017 22.763L152.087 22.692ZM152.087 9.024L152.158 9.09471L152.158 9.09439L152.087 9.024ZM156.131 7.728L156.131 7.828H156.131V7.728ZM162.479 8.664L162.417 8.74255L162.418 8.74293L162.479 8.664ZM163.859 11.592L163.76 11.6015L163.76 11.6061L163.859 11.592ZM163.667 12.36L163.738 12.4307L163.738 12.4307L163.667 12.36ZM161.843 11.616L161.744 11.6268L161.744 11.6301L161.843 11.616ZM161.075 10.128L161.024 10.2136L161.024 10.214L161.075 10.128ZM156.131 9.744L156.13 9.844H156.131V9.744ZM154.127 10.032L154.089 9.93947L154.089 9.93969L154.127 10.032ZM153.095 11.076L153.003 11.0373L153.003 11.0381L153.095 11.076ZM153.095 20.64L153.003 20.6779L153.003 20.6792L153.095 20.64ZM154.139 21.684L154.1 21.776L154.101 21.7765L154.139 21.684ZM161.075 21.6L161.127 21.6856L161.128 21.6853L161.075 21.6ZM161.843 20.112L161.744 20.0979L161.744 20.1011L161.843 20.112ZM163.667 19.368L163.738 19.2973H163.738L163.667 19.368ZM163.859 20.136L163.76 20.1218L163.76 20.1265L163.859 20.136ZM162.479 23.076L162.541 23.1549L162.479 23.076ZM156.155 23.9C154.337 23.9 153.012 23.4671 152.158 22.621L152.017 22.763C152.923 23.6609 154.31 24.1 156.155 24.1V23.9ZM152.158 22.6216C151.312 21.7677 150.879 20.4422 150.879 18.624H150.679C150.679 20.4698 151.119 21.8563 152.016 22.7624L152.158 22.6216ZM150.879 18.624V13.104H150.679V18.624H150.879ZM150.879 13.104C150.879 11.2694 151.312 9.94039 152.158 9.09471L152.017 8.95329C151.118 9.85161 150.679 11.2425 150.679 13.104H150.879ZM152.158 9.09439C153.004 8.24103 154.321 7.81212 156.131 7.828L156.132 7.628C154.294 7.61188 152.915 8.04697 152.016 8.95361L152.158 9.09439ZM156.131 7.828H159.035V7.628H156.131V7.828ZM159.035 7.828C160.528 7.828 161.65 8.13781 162.417 8.74255L162.541 8.58545C161.725 7.94218 160.551 7.628 159.035 7.628V7.828ZM162.418 8.74293C163.182 9.33689 163.634 10.2833 163.76 11.6015L163.959 11.5825C163.829 10.2287 163.361 9.2231 162.541 8.58506L162.418 8.74293ZM163.76 11.6061C163.806 11.9232 163.743 12.143 163.597 12.2893L163.738 12.4307C163.944 12.225 164.009 11.9328 163.958 11.5779L163.76 11.6061ZM163.597 12.2893C163.445 12.4407 163.218 12.524 162.899 12.524V12.724C163.252 12.724 163.538 12.6313 163.738 12.4307L163.597 12.2893ZM162.899 12.524C162.614 12.524 162.401 12.4457 162.248 12.2997C162.094 12.1523 161.988 11.9243 161.942 11.6019L161.744 11.6301C161.794 11.9797 161.913 12.2557 162.11 12.4443C162.309 12.6342 162.576 12.724 162.899 12.724V12.524ZM161.943 11.6052C161.861 10.8534 161.597 10.3206 161.126 10.042L161.024 10.214C161.418 10.4474 161.666 10.9066 161.744 11.6268L161.943 11.6052ZM161.127 10.0424C160.679 9.7718 159.976 9.644 159.035 9.644V9.844C159.967 9.844 160.624 9.97219 161.024 10.2136L161.127 10.0424ZM159.035 9.644H156.131V9.844H159.035V9.644ZM156.132 9.644C155.278 9.63595 154.595 9.73227 154.089 9.93947L154.165 10.1245C154.636 9.93173 155.289 9.83605 156.13 9.84399L156.132 9.644ZM154.089 9.93969C153.584 10.1502 153.221 10.518 153.003 11.0373L153.188 11.1147C153.386 10.642 153.711 10.3138 154.166 10.1243L154.089 9.93969ZM153.003 11.0381C152.796 11.5434 152.695 12.2342 152.695 13.104H152.895C152.895 12.2458 152.995 11.5846 153.188 11.1139L153.003 11.0381ZM152.695 13.104V18.624H152.895V13.104H152.695ZM152.695 18.624C152.695 19.4859 152.796 20.1727 153.003 20.6779L153.188 20.6021C152.995 20.1313 152.895 19.4741 152.895 18.624H152.695ZM153.003 20.6792C153.222 21.191 153.588 21.5579 154.1 21.776L154.179 21.592C153.714 21.3941 153.385 21.065 153.187 20.6008L153.003 20.6792ZM154.101 21.7765C154.607 21.9836 155.293 22.084 156.155 22.084V21.884C155.305 21.884 154.648 21.7844 154.177 21.5915L154.101 21.7765ZM156.155 22.084H159.035V21.884H156.155V22.084ZM159.035 22.084C159.976 22.084 160.679 21.9562 161.127 21.6856L161.024 21.5144C160.624 21.7558 159.967 21.884 159.035 21.884V22.084ZM161.128 21.6853C161.596 21.3989 161.861 20.8673 161.943 20.1229L161.744 20.1011C161.666 20.8127 161.419 21.2731 161.023 21.5147L161.128 21.6853ZM161.942 20.1261C161.988 19.8037 162.094 19.5757 162.248 19.4283C162.401 19.2822 162.614 19.204 162.899 19.204V19.004C162.576 19.004 162.309 19.0938 162.11 19.2837C161.913 19.4723 161.794 19.7483 161.744 20.0979L161.942 20.1261ZM162.899 19.204C163.218 19.204 163.445 19.2873 163.597 19.4387L163.738 19.2973C163.538 19.0967 163.252 19.004 162.899 19.004V19.204ZM163.597 19.4387C163.743 19.585 163.806 19.8048 163.76 20.1219L163.958 20.1501C164.009 19.7952 163.944 19.503 163.738 19.2973L163.597 19.4387ZM163.76 20.1265C163.633 21.4529 163.182 22.4032 162.418 22.9971L162.541 23.1549C163.361 22.5168 163.829 21.5071 163.959 20.1455L163.76 20.1265ZM162.418 22.9971C161.65 23.5941 160.528 23.9 159.035 23.9V24.1C160.551 24.1 161.724 23.7899 162.541 23.1549L162.418 22.9971ZM159.035 23.9H156.155V24.1H159.035V23.9ZM170.082 14.436H169.982V14.6831L170.154 14.5055L170.082 14.436ZM176.202 8.112L176.274 8.18155L176.275 8.18031L176.202 8.112ZM177.618 8.088L177.548 8.15875L177.55 8.16103L177.618 8.088ZM177.642 9.504L177.572 9.43328L177.57 9.43444L177.642 9.504ZM172.542 14.772L172.47 14.7024L172.409 14.7659L172.464 14.8347L172.542 14.772ZM178.554 22.248L178.634 22.1874L178.632 22.1853L178.554 22.248ZM178.41 23.664L178.347 23.5863L178.347 23.5865L178.41 23.664ZM176.994 23.52L176.916 23.5828L176.917 23.5832L176.994 23.52ZM171.126 16.248L171.204 16.1852L171.133 16.0971L171.054 16.1785L171.126 16.248ZM170.082 17.328L170.01 17.2585L169.982 17.2876V17.328H170.082ZM169.074 23.9C168.754 23.9 168.532 23.8199 168.389 23.6773C168.246 23.5347 168.166 23.3126 168.166 22.992H167.966C167.966 23.3434 168.054 23.6253 168.248 23.8187C168.441 24.0121 168.723 24.1 169.074 24.1V23.9ZM168.166 22.992V8.736H167.966V22.992H168.166ZM168.166 8.736C168.166 8.41541 168.246 8.19334 168.389 8.05071C168.532 7.90808 168.754 7.828 169.074 7.828V7.628C168.723 7.628 168.441 7.71592 168.248 7.90929C168.054 8.10266 167.966 8.38458 167.966 8.736H168.166ZM169.074 7.828C169.395 7.828 169.617 7.90808 169.76 8.05071C169.902 8.19334 169.982 8.41541 169.982 8.736H170.182C170.182 8.38458 170.094 8.10266 169.901 7.90929C169.708 7.71592 169.426 7.628 169.074 7.628V7.828ZM169.982 8.736V14.436H170.182V8.736H169.982ZM170.154 14.5055L176.274 8.18154L176.13 8.04246L170.01 14.3665L170.154 14.5055ZM176.275 8.18031C176.497 7.94333 176.707 7.83736 176.906 7.83398C177.105 7.83061 177.318 7.9294 177.548 8.15871L177.689 8.01729C177.438 7.7666 177.176 7.62938 176.903 7.63401C176.63 7.63864 176.372 7.78466 176.129 8.04368L176.275 8.18031ZM177.55 8.16103C177.787 8.38272 177.893 8.5928 177.896 8.79169C177.9 8.99057 177.801 9.20398 177.572 9.43329L177.713 9.57471C177.964 9.32402 178.101 9.06143 178.096 8.7883C178.092 8.5152 177.946 8.25728 177.687 8.01497L177.55 8.16103ZM177.57 9.43444L172.47 14.7024L172.614 14.8416L177.714 9.57355L177.57 9.43444ZM172.464 14.8347L178.476 22.3107L178.632 22.1853L172.62 14.7093L172.464 14.8347ZM178.475 22.3086C178.67 22.5649 178.745 22.792 178.725 22.9939C178.704 23.1948 178.586 23.3927 178.347 23.5863L178.473 23.7417C178.738 23.5273 178.896 23.2852 178.924 23.0141C178.951 22.744 178.847 22.4671 178.634 22.1874L178.475 22.3086ZM178.347 23.5865C178.099 23.7888 177.877 23.8669 177.676 23.8465C177.476 23.8261 177.274 23.7049 177.072 23.4568L176.917 23.5832C177.139 23.8551 177.385 24.0179 177.656 24.0455C177.928 24.0731 178.202 23.9632 178.474 23.7415L178.347 23.5865ZM177.072 23.4572L171.204 16.1852L171.048 16.3108L176.916 23.5828L177.072 23.4572ZM171.054 16.1785L170.01 17.2585L170.154 17.3975L171.198 16.3175L171.054 16.1785ZM169.982 17.328V22.992H170.182V17.328H169.982ZM169.982 22.992C169.982 23.3126 169.902 23.5347 169.76 23.6773C169.617 23.8199 169.395 23.9 169.074 23.9V24.1C169.426 24.1 169.708 24.0121 169.901 23.8187C170.094 23.6253 170.182 23.3434 170.182 22.992H169.982Z" fill="#A6C2DC" mask="url(#path-1-outside-1_1_135)"/>
<path d="M11 15L14.5 18.5L20 13" stroke="#A6C2DC" stroke-width="1.5" stroke-linecap="round"/>
<path fill-rule="evenodd" clip-rule="evenodd" d="M1 0C0.447715 0 0 0.447716 0 1V29C0 29.5523 0.447716 30 1 30H29C29.5523 30 30 29.5523 30 29V1C30 0.447715 29.5523 0 29 0H1ZM15.5 25C20.7467 25 25 20.7467 25 15.5C25 10.2533 20.7467 6 15.5 6C10.2533 6 6 10.2533 6 15.5C6 20.7467 10.2533 25 15.5 25Z" fill="#A6C2DC"/>
</svg>
