<svg width="26" height="28" viewBox="0 0 26 28" fill="none" xmlns="http://www.w3.org/2000/svg">
<path fill-rule="evenodd" clip-rule="evenodd" d="M4.2 8.4C4.2 6.17218 5.085 4.03561 6.6603 2.4603C8.23561 0.884997 10.3722 0 12.6 0C14.8278 0 16.9644 0.884997 18.5397 2.4603C20.115 4.03561 21 6.17218 21 8.4H22.4C23.1426 8.4 23.8548 8.695 24.3799 9.2201C24.905 9.7452 25.2 10.4574 25.2 11.2V25.2C25.2 25.9426 24.905 26.6548 24.3799 27.1799C23.8548 27.705 23.1426 28 22.4 28H2.8C2.05739 28 1.3452 27.705 0.820101 27.1799C0.294999 26.6548 0 25.9426 0 25.2V11.2C0 10.4574 0.294999 9.7452 0.820101 9.2201C1.3452 8.695 2.05739 8.4 2.8 8.4H4.2ZM12.6 2.8C14.0852 2.8 15.5096 3.39 16.5598 4.4402C17.61 5.49041 18.2 6.91479 18.2 8.4H7C7 6.91479 7.59 5.49041 8.6402 4.4402C9.69041 3.39 11.1148 2.8 12.6 2.8ZM15.4 16.8C15.4 17.2915 15.2706 17.7743 15.0249 18.2C14.7791 18.6256 14.4256 18.9791 14 19.2248V21C14 21.3713 13.8525 21.7274 13.59 21.99C13.3274 22.2525 12.9713 22.4 12.6 22.4C12.2287 22.4 11.8726 22.2525 11.6101 21.99C11.3475 21.7274 11.2 21.3713 11.2 21V19.2248C10.6662 18.9166 10.2491 18.4409 10.0132 17.8714C9.77738 17.302 9.73601 16.6706 9.89553 16.0753C10.0551 15.4799 10.4066 14.9539 10.8955 14.5786C11.3845 14.2034 11.9836 14 12.6 14C13.3426 14 14.0548 14.295 14.5799 14.8201C15.105 15.3452 15.4 16.0574 15.4 16.8Z" fill="#979797"/>
</svg>
