<svg width="29" height="29" viewBox="0 0 29 29" fill="none" xmlns="http://www.w3.org/2000/svg">
<path d="M21.2648 18.7023H19.921L19.4447 18.2433C20.5077 17.0091 21.2847 15.5553 21.7199 13.9859C22.1551 12.4165 22.2378 10.7704 21.9622 9.16539C21.1627 4.43942 17.2164 0.665443 12.4537 0.0874468C10.7792 -0.12426 9.07855 0.0496588 7.48173 0.595895C5.8849 1.14213 4.43427 2.04621 3.24084 3.23894C2.04741 4.43167 1.1428 5.88145 0.596244 7.47734C0.049688 9.07323 -0.124333 10.7729 0.0874981 12.4464C0.665833 17.2063 4.44202 21.1503 9.17076 21.9493C10.7768 22.2248 12.4238 22.1421 13.9941 21.7071C15.5644 21.2722 17.0191 20.4957 18.254 19.4333L18.7133 19.9093V21.2523L25.9425 28.4773C26.6399 29.1742 27.7795 29.1742 28.4769 28.4773C29.1744 27.7803 29.1744 26.6413 28.4769 25.9443L21.2648 18.7023ZM11.0589 18.7023C6.8234 18.7023 3.40442 15.2853 3.40442 11.0524C3.40442 6.8194 6.8234 3.40242 11.0589 3.40242C15.2943 3.40242 18.7133 6.8194 18.7133 11.0524C18.7133 15.2853 15.2943 18.7023 11.0589 18.7023Z" fill="#979797"/>
</svg>
